2900 0 1 0           
20 CST MICROWAVE STUDIO 14 ACIS 29.0.1 NT 24 Sun Jun 13 17:26:36 2021 
1 9.9999999999999995e-07 1e-10 
T @77 NN948CDM7J5U9JHKFYH5GNKYK4GM5N5V4954KVPWABQBQM573BDMKM76Q89MNRPEFBPKNXPXJ8TUJ 
body $1 -1 -1 $-1 0 $2 $-1 $3 F #
name_attrib-gen-attrib $-1 -1 $4 $-1 $0 2 1 1 1 1 1 1 1 1 1 1 1 1 1 0 1 1 1 @14 mMSLINE1/Metal #
lump $-1 -1 -1 $-1 $-1 $5 $0 F #
transform $-1 -1 1 0 0 0 1 0 0 0 1 0 0 1 1 no_rotate no_reflect no_shear #
name_attrib-gen-attrib $-1 -1 $6 $1 $0 2 1 1 1 1 1 1 1 1 1 1 1 1 1 0 1 1 1 @16 nMSLINE1:MSLINE1 #
shell $-1 -1 -1 $-1 $-1 $-1 $7 $-1 $2 F #
name_attrib-gen-attrib $-1 -1 $-1 $4 $0 2 1 1 1 1 1 1 1 1 1 1 1 1 1 0 1 1 1 @37 ca1.000000 1.000000 0.000000 1.000000 #
face $-1 -1 -1 $-1 $-1 $8 $5 $-1 $9 forward double out T -1.019494305858585 -3.3088617646859251 0 1.019494305858585 3.3088617646859251 0 F #
loop $-1 -1 -1 $-1 $-1 $10 $7 T -1.019494305858585 -3.3088617646859251 0 1.019494305858585 3.3088617646859251 0 periphery $9 F #
plane-surface $-1 -1 -1 $-1 0 1.8434359815971313e-17 0 0 0 1 1 0 0 forward_v I I I I #
coedge $-1 -1 -1 $-1 $11 $12 $-1 $13 forward $8 $-1 #
coedge $-1 -1 -1 $-1 $14 $10 $-1 $15 forward $8 $-1 #
coedge $-1 -1 -1 $-1 $10 $14 $-1 $16 forward $8 $-1 #
edge $-1 -1 -1 $-1 $17 0 $18 2.0389886117171701 $10 $19 forward @7 unknown T -1.019494305858585 -3.3088617646859251 0 1.019494305858585 -3.3088617646859251 0 #
coedge $-1 -1 -1 $-1 $12 $11 $-1 $20 forward $8 $-1 #
edge $-1 -1 -1 $-1 $18 0 $21 6.6177235293718502 $11 $22 forward @7 unknown T 1.019494305858585 -3.3088617646859251 0 1.019494305858585 3.3088617646859251 0 #
edge $-1 -1 -1 $-1 $23 0 $17 6.6177235293718502 $12 $24 forward @7 unknown T -1.019494305858585 -3.3088617646859251 0 -1.019494305858585 3.3088617646859251 0 #
vertex $-1 -1 -1 $-1 $13 $25 #
vertex $-1 -1 -1 $-1 $13 $26 #
straight-curve $-1 -1 -1 $-1 -1.019494305858585 -3.3088617646859251 0 1 0 0 I I #
edge $-1 -1 -1 $-1 $21 0 $23 2.0389886117171701 $14 $27 forward @7 unknown T -1.019494305858585 3.3088617646859251 0 1.019494305858585 3.3088617646859251 0 #
vertex $-1 -1 -1 $-1 $15 $28 #
straight-curve $-1 -1 -1 $-1 1.019494305858585 -3.3088617646859251 0 0 1 0 I I #
vertex $-1 -1 -1 $-1 $20 $29 #
straight-curve $-1 -1 -1 $-1 -1.019494305858585 3.3088617646859251 0 0 -1 0 I I #
point $-1 -1 -1 $-1 -1.019494305858585 -3.3088617646859251 0 #
point $-1 -1 -1 $-1 1.019494305858585 -3.3088617646859251 0 #
straight-curve $-1 -1 -1 $-1 1.019494305858585 3.3088617646859251 0 -1 0 0 I I #
point $-1 -1 -1 $-1 1.019494305858585 3.3088617646859251 0 #
point $-1 -1 -1 $-1 -1.019494305858585 3.3088617646859251 0 #
End-of-ACIS-data 