2900 0 2 0           
22 CST 2D Block Converter 14 ACIS 29.0.1 NT 24 Sun Jun 13 17:26:35 2021 
1000 9.9999999999999995e-07 1e-10 
T @77 C4TEHPR7_VBYFAH3FE68EQN6K454YAQ45BJMPGNHUC4CREP23BNKKC6W297CPX6WEBPUJA5CQAA4P 
body $2 -1 -1 $-1 0 $3 $-1 $4 F #
body $5 -1 -1 $-1 0 $6 $-1 $7 F #
name_attrib-gen-attrib $-1 -1 $8 $-1 $0 2 1 1 1 1 1 1 1 1 1 1 1 1 1 0 1 1 1 @37 ca0.000000 0.550000 0.100000 0.000000 #
lump $-1 -1 -1 $-1 $-1 $9 $0 F #
transform $-1 -1 1 0 0 0 1 0 0 0 1 6 3.4087316302944259e-13 0.5 1 no_rotate no_reflect no_shear #
name_attrib-gen-attrib $-1 -1 $10 $-1 $1 2 1 1 1 1 1 1 1 1 1 1 1 1 1 0 1 1 1 @37 ca1.000000 1.000000 0.000000 0.000000 #
lump $-1 -1 -1 $-1 $-1 $11 $1 F #
transform $-1 -1 1 0 0 0 1 0 0 0 1 6 3.4087316302944259e-13 0 1 no_rotate no_reflect no_shear #
name_attrib-gen-attrib $-1 -1 $12 $2 $0 2 1 1 1 1 1 1 1 1 1 1 1 1 1 0 1 1 1 @10 mSubstrate #
shell $-1 -1 -1 $-1 $-1 $-1 $13 $-1 $3 F #
name_attrib-gen-attrib $-1 -1 $14 $5 $1 2 1 1 1 1 1 1 1 1 1 1 1 1 1 0 1 1 1 @4 mGND #
shell $-1 -1 -1 $-1 $-1 $-1 $15 $-1 $6 F #
name_attrib-gen-attrib $-1 -1 $-1 $8 $0 2 1 1 1 1 1 1 1 1 1 1 1 1 1 0 1 1 1 @17 nMSREF1:Substrate #
face $-1 -1 -1 $-1 $16 $17 $9 $-1 $18 forward single F F #
name_attrib-gen-attrib $-1 -1 $-1 $10 $1 2 1 1 1 1 1 1 1 1 1 1 1 1 1 0 1 1 1 @18 nMSREF1:GND_Bottom #
face $-1 -1 -1 $-1 $-1 $19 $11 $-1 $20 reversed double out F F #
face $-1 -1 -1 $-1 $21 $22 $9 $-1 $23 reversed single F F #
loop $-1 -1 -1 $-1 $-1 $24 $13 T -8.0194943058585846 -8.0194943058592703 0.5 8.0194943058585846 8.0194943058592703 0.5 unknown #
plane-surface $-1 -1 -1 $-1 0 0 0.5 0 0 1 1 0 0 forward_v I I I I #
loop $-1 -1 -1 $-1 $-1 $25 $15 T -8.0194943058585846 -8.0194943058592703 -0 8.0194943058585846 8.0194943058592703 -0 unknown #
plane-surface $-1 -1 -1 $-1 0 0 -0 0 0 1 1 0 0 forward_v I I I I #
face $-1 -1 -1 $-1 $26 $27 $9 $-1 $28 reversed single F F #
loop $-1 -1 -1 $-1 $-1 $29 $16 T -8.0194943058585846 -8.0194943058592703 -0.5 8.0194943058585846 8.0194943058592703 -0.5 unknown #
plane-surface $-1 -1 -1 $-1 0 0 -0.5 0 0 1 1 0 0 forward_v I I I I #
coedge $-1 -1 -1 $-1 $30 $31 $32 $33 forward $17 $-1 #
coedge $-1 -1 -1 $-1 $34 $35 $-1 $36 forward $19 $-1 #
face $-1 -1 -1 $-1 $37 $38 $9 $-1 $39 reversed single F F #
loop $-1 -1 -1 $-1 $-1 $40 $21 T -8.0194943058585846 -8.0194943058592703 -0.5 8.0194943058585846 -8.0194943058592703 0.5 unknown #
plane-surface $-1 -1 -1 $-1 0 -8.0194943058592703 0 0 1 -0 -0 0 1 forward_v I I I I #
coedge $-1 -1 -1 $-1 $41 $42 $43 $44 forward $22 $-1 #
coedge $-1 -1 -1 $-1 $45 $24 $46 $47 forward $17 $-1 #
coedge $-1 -1 -1 $-1 $24 $45 $48 $49 forward $17 $-1 #
coedge $-1 -1 -1 $-1 $50 $51 $24 $33 reversed $52 $-1 #
edge $-1 -1 -1 $-1 $53 -8.0194943058592703 $54 8.0194943058592703 $32 $55 forward @7 unknown T 8.0194943058585846 -8.0194943058592703 0.5 8.0194943058585846 8.0194943058592703 0.5 #
coedge $-1 -1 -1 $-1 $56 $25 $-1 $57 forward $19 $-1 #
coedge $-1 -1 -1 $-1 $25 $56 $-1 $58 forward $19 $-1 #
edge $-1 -1 -1 $-1 $59 -8.0194943058592703 $60 8.0194943058592703 $25 $61 forward @7 unknown T 8.0194943058585846 -8.0194943058592703 -0 8.0194943058585846 8.0194943058592703 -0 #
face $-1 -1 -1 $-1 $62 $63 $9 $-1 $64 reversed single F F #
loop $-1 -1 -1 $-1 $-1 $65 $26 T -8.0194943058585846 -8.0194943058592703 -0.5 -8.0194943058585846 8.0194943058592703 0.5 unknown #
plane-surface $-1 -1 -1 $-1 -8.0194943058585846 0 0 1 0 0 0 0 -1 forward_v I I I I #
coedge $-1 -1 -1 $-1 $66 $48 $67 $68 forward $27 $-1 #
coedge $-1 -1 -1 $-1 $69 $29 $66 $70 forward $22 $-1 #
coedge $-1 -1 -1 $-1 $29 $69 $71 $72 forward $22 $-1 #
coedge $-1 -1 -1 $-1 $51 $50 $29 $44 reversed $52 $-1 #
edge $-1 -1 -1 $-1 $73 -8.0194943058592703 $74 8.0194943058592703 $43 $75 forward @7 unknown T 8.0194943058585846 -8.0194943058592703 -0.5 8.0194943058585846 8.0194943058592703 -0.5 #
coedge $-1 -1 -1 $-1 $31 $30 $76 $77 forward $17 $-1 #
coedge $-1 -1 -1 $-1 $78 $79 $30 $47 reversed $63 $-1 #
edge $-1 -1 -1 $-1 $54 -8.0194943058585846 $80 8.0194943058585846 $46 $81 forward @7 unknown T -8.0194943058585846 8.0194943058592703 0.5 8.0194943058585846 8.0194943058592703 0.5 #
coedge $-1 -1 -1 $-1 $40 $82 $31 $49 reversed $27 $-1 #
edge $-1 -1 -1 $-1 $83 -8.0194943058585846 $53 8.0194943058585846 $48 $84 forward @7 unknown T -8.0194943058585846 -8.0194943058592703 0.5 8.0194943058585846 -8.0194943058592703 0.5 #
coedge $-1 -1 -1 $-1 $43 $32 $82 $85 forward $52 $-1 #
coedge $-1 -1 -1 $-1 $32 $43 $78 $86 reversed $52 $-1 #
loop $-1 -1 -1 $-1 $-1 $50 $62 T 8.0194943058585846 -8.0194943058592703 -0.5 8.0194943058585846 8.0194943058592703 0.5 unknown #
vertex $-1 -1 -1 $-1 $33 $87 #
vertex $-1 -1 -1 $-1 $33 $88 #
straight-curve $-1 -1 -1 $-1 8.0194943058585846 0 0.5 0 1 0 I I #
coedge $-1 -1 -1 $-1 $35 $34 $-1 $89 forward $19 $-1 #
edge $-1 -1 -1 $-1 $60 -8.0194943058585846 $90 8.0194943058585846 $34 $91 forward @7 unknown T -8.0194943058585846 -8.0194943058592703 -0 8.0194943058585846 -8.0194943058592703 -0 #
edge $-1 -1 -1 $-1 $92 -8.0194943058585846 $59 8.0194943058585846 $35 $93 forward @7 unknown T -8.0194943058585846 8.0194943058592703 -0 8.0194943058585846 8.0194943058592703 -0 #
vertex $-1 -1 -1 $-1 $36 $94 #
vertex $-1 -1 -1 $-1 $36 $95 #
straight-curve $-1 -1 -1 $-1 8.0194943058585846 0 -0 0 -1 0 I I #
face $-1 -1 -1 $-1 $-1 $52 $9 $-1 $96 reversed single F F #
loop $-1 -1 -1 $-1 $-1 $78 $37 T -8.0194943058585846 8.0194943058592703 -0.5 8.0194943058585846 8.0194943058592703 0.5 unknown #
plane-surface $-1 -1 -1 $-1 0 8.0194943058592703 0 0 -1 0 0 0 -1 forward_v I I I I #
coedge $-1 -1 -1 $-1 $97 $76 $79 $98 forward $38 $-1 #
coedge $-1 -1 -1 $-1 $82 $40 $41 $70 reversed $27 $-1 #
coedge $-1 -1 -1 $-1 $76 $97 $40 $68 reversed $38 $-1 #
edge $-1 -1 -1 $-1 $83 -0.5 $99 0.5 $67 $100 forward @7 unknown T -8.0194943058585846 -8.0194943058592703 -0.5 -8.0194943058585846 -8.0194943058592703 0.5 #
coedge $-1 -1 -1 $-1 $42 $41 $97 $101 forward $22 $-1 #
edge $-1 -1 -1 $-1 $74 -8.0194943058585846 $99 8.0194943058585846 $66 $102 forward @7 unknown T -8.0194943058585846 -8.0194943058592703 -0.5 8.0194943058585846 -8.0194943058592703 -0.5 #
coedge $-1 -1 -1 $-1 $79 $78 $42 $72 reversed $63 $-1 #
edge $-1 -1 -1 $-1 $103 -8.0194943058585846 $73 8.0194943058585846 $71 $104 forward @7 unknown T -8.0194943058585846 8.0194943058592703 -0.5 8.0194943058585846 8.0194943058592703 -0.5 #
vertex $-1 -1 -1 $-1 $44 $105 #
vertex $-1 -1 -1 $-1 $85 $106 #
straight-curve $-1 -1 -1 $-1 8.0194943058585846 0 -0.5 0 -1 0 I I #
coedge $-1 -1 -1 $-1 $65 $67 $45 $77 reversed $38 $-1 #
edge $-1 -1 -1 $-1 $80 -8.0194943058592703 $83 8.0194943058592703 $76 $107 forward @7 unknown T -8.0194943058585846 -8.0194943058592703 0.5 -8.0194943058585846 8.0194943058592703 0.5 #
coedge $-1 -1 -1 $-1 $71 $46 $51 $86 forward $63 $-1 #
coedge $-1 -1 -1 $-1 $46 $71 $65 $98 reversed $63 $-1 #
vertex $-1 -1 -1 $-1 $47 $108 #
straight-curve $-1 -1 -1 $-1 0 8.0194943058592703 0.5 -1 0 0 I I #
coedge $-1 -1 -1 $-1 $48 $66 $50 $85 reversed $27 $-1 #
vertex $-1 -1 -1 $-1 $77 $109 #
straight-curve $-1 -1 -1 $-1 0 -8.0194943058592703 0.5 1 0 0 I I #
edge $-1 -1 -1 $-1 $53 -0.5 $74 0.5 $50 $110 forward @7 unknown T 8.0194943058585846 -8.0194943058592703 -0.5 8.0194943058585846 -8.0194943058592703 0.5 #
edge $-1 -1 -1 $-1 $54 -0.5 $73 0.5 $51 $111 forward @7 unknown T 8.0194943058585846 8.0194943058592703 -0.5 8.0194943058585846 8.0194943058592703 0.5 #
point $-1 -1 -1 $-1 8.0194943058585846 -8.0194943058592703 0.5 #
point $-1 -1 -1 $-1 8.0194943058585846 8.0194943058592703 0.5 #
edge $-1 -1 -1 $-1 $90 -8.0194943058592703 $92 8.0194943058592703 $56 $112 forward @7 unknown T -8.0194943058585846 -8.0194943058592703 -0 -8.0194943058585846 8.0194943058592703 -0 #
vertex $-1 -1 -1 $-1 $89 $113 #
straight-curve $-1 -1 -1 $-1 0 -8.0194943058592703 -0 -1 0 0 I I #
vertex $-1 -1 -1 $-1 $58 $114 #
straight-curve $-1 -1 -1 $-1 0 8.0194943058592703 -0 1 0 0 I I #
point $-1 -1 -1 $-1 8.0194943058585846 8.0194943058592703 -0 #
point $-1 -1 -1 $-1 8.0194943058585846 -8.0194943058592703 -0 #
plane-surface $-1 -1 -1 $-1 8.0194943058585846 0 0 -1 0 0 0 -0 1 forward_v I I I I #
coedge $-1 -1 -1 $-1 $67 $65 $69 $101 reversed $38 $-1 #
edge $-1 -1 -1 $-1 $80 -0.5 $103 0.5 $79 $115 forward @7 unknown T -8.0194943058585846 8.0194943058592703 -0.5 -8.0194943058585846 8.0194943058592703 0.5 #
vertex $-1 -1 -1 $-1 $101 $116 #
straight-curve $-1 -1 -1 $-1 -8.0194943058585846 -8.0194943058592703 0 0 0 -1 I I #
edge $-1 -1 -1 $-1 $99 -8.0194943058592703 $103 8.0194943058592703 $97 $117 forward @7 unknown T -8.0194943058585846 -8.0194943058592703 -0.5 -8.0194943058585846 8.0194943058592703 -0.5 #
straight-curve $-1 -1 -1 $-1 0 -8.0194943058592703 -0.5 -1 0 0 I I #
vertex $-1 -1 -1 $-1 $72 $118 #
straight-curve $-1 -1 -1 $-1 0 8.0194943058592703 -0.5 1 0 0 I I #
point $-1 -1 -1 $-1 8.0194943058585846 8.0194943058592703 -0.5 #
point $-1 -1 -1 $-1 8.0194943058585846 -8.0194943058592703 -0.5 #
straight-curve $-1 -1 -1 $-1 -8.0194943058585846 0 0.5 0 -1 0 I I #
point $-1 -1 -1 $-1 -8.0194943058585846 8.0194943058592703 0.5 #
point $-1 -1 -1 $-1 -8.0194943058585846 -8.0194943058592703 0.5 #
straight-curve $-1 -1 -1 $-1 8.0194943058585846 -8.0194943058592703 0 0 0 -1 I I #
straight-curve $-1 -1 -1 $-1 8.0194943058585846 8.0194943058592703 0 0 0 -1 I I #
straight-curve $-1 -1 -1 $-1 -8.0194943058585846 0 -0 0 1 0 I I #
point $-1 -1 -1 $-1 -8.0194943058585846 -8.0194943058592703 -0 #
point $-1 -1 -1 $-1 -8.0194943058585846 8.0194943058592703 -0 #
straight-curve $-1 -1 -1 $-1 -8.0194943058585846 8.0194943058592703 0 0 0 -1 I I #
point $-1 -1 -1 $-1 -8.0194943058585846 -8.0194943058592703 -0.5 #
straight-curve $-1 -1 -1 $-1 -8.0194943058585846 0 -0.5 0 1 0 I I #
point $-1 -1 -1 $-1 -8.0194943058585846 8.0194943058592703 -0.5 #
End-of-ACIS-data 