2900 0 1 0           
20 CST MICROWAVE STUDIO 14 ACIS 29.0.1 NT 24 Sun Jun 13 18:06:45 2021 
1 9.9999999999999995e-07 1e-10 
T @77 2TS_5C73R6Z4ZNDXRM764J9XY5M379QHS85VF85BU8V4FP79KATMPVPWT8PKMM5E7DQKEAQBYDQUJ 
body $1 -1 -1 $-1 0 $2 $-1 $3 F #
name_attrib-gen-attrib $-1 -1 $4 $-1 $0 2 1 1 1 1 1 1 1 1 1 1 1 1 1 0 1 1 1 @17 mMSREF1/Substrate #
lump $-1 -1 -1 $-1 $-1 $5 $0 F #
transform $-1 -1 1 0 0 0 1 0 0 0 1 6 3.4087316302944259e-13 0.5 1 no_rotate no_reflect no_shear #
name_attrib-gen-attrib $-1 -1 $6 $1 $0 2 1 1 1 1 1 1 1 1 1 1 1 1 1 0 1 1 1 @17 nMSREF1:Substrate #
shell $-1 -1 -1 $-1 $-1 $-1 $7 $-1 $2 F #
name_attrib-gen-attrib $-1 -1 $-1 $4 $0 2 1 1 1 1 1 1 1 1 1 1 1 1 1 0 1 1 1 @37 ca0.000000 0.550000 0.100000 0.000000 #
face $-1 -1 -1 $-1 $8 $9 $5 $-1 $10 forward single F F #
face $-1 -1 -1 $-1 $11 $12 $5 $-1 $13 reversed single F F #
loop $-1 -1 -1 $-1 $-1 $14 $7 T -8.0195000000000007 -8.0195000000006864 0.5 8.0195000000000007 8.0195000000006864 0.5 unknown #
plane-surface $-1 -1 -1 $-1 0 0 0.5 0 0 1 1 0 0 forward_v I I I I #
face $-1 -1 -1 $-1 $15 $16 $5 $-1 $17 reversed single F F #
loop $-1 -1 -1 $-1 $-1 $18 $8 T -8.0195000000000007 -8.0195000000006864 -0.5 8.0195000000000007 8.0195000000006864 -0.5 unknown #
plane-surface $-1 -1 -1 $-1 0 0 -0.5 0 0 1 1 0 0 forward_v I I I I #
coedge $-1 -1 -1 $-1 $19 $20 $21 $22 forward $9 $-1 #
face $-1 -1 -1 $-1 $23 $24 $5 $-1 $25 reversed single F F #
loop $-1 -1 -1 $-1 $-1 $26 $11 T -8.0195000000000007 -8.0195000000006864 -0.5 8.0195000000000007 -8.0195000000006864 0.5 unknown #
plane-surface $-1 -1 -1 $-1 0 -8.0195000000006864 0 0 1 -0 -0 0 1 forward_v I I I I #
coedge $-1 -1 -1 $-1 $27 $28 $29 $30 forward $12 $-1 #
coedge $-1 -1 -1 $-1 $31 $14 $32 $33 forward $9 $-1 #
coedge $-1 -1 -1 $-1 $14 $31 $34 $35 forward $9 $-1 #
coedge $-1 -1 -1 $-1 $36 $37 $14 $22 reversed $38 $-1 #
edge $-1 -1 -1 $-1 $39 -8.0195000000006864 $40 8.0195000000006864 $21 $41 forward @7 unknown T 8.0195000000000007 -8.0195000000006864 0.5 8.0195000000000007 8.0195000000006864 0.5 #
face $-1 -1 -1 $-1 $42 $43 $5 $-1 $44 reversed single F F #
loop $-1 -1 -1 $-1 $-1 $45 $15 T -8.0195000000000007 -8.0195000000006864 -0.5 -8.0195000000000007 8.0195000000006864 0.5 unknown #
plane-surface $-1 -1 -1 $-1 -8.0195000000000007 0 0 1 0 0 0 0 -1 forward_v I I I I #
coedge $-1 -1 -1 $-1 $46 $34 $47 $48 forward $16 $-1 #
coedge $-1 -1 -1 $-1 $49 $18 $46 $50 forward $12 $-1 #
coedge $-1 -1 -1 $-1 $18 $49 $51 $52 forward $12 $-1 #
coedge $-1 -1 -1 $-1 $37 $36 $18 $30 reversed $38 $-1 #
edge $-1 -1 -1 $-1 $53 -8.0195000000006864 $54 8.0195000000006864 $29 $55 forward @7 unknown T 8.0195000000000007 -8.0195000000006864 -0.5 8.0195000000000007 8.0195000000006864 -0.5 #
coedge $-1 -1 -1 $-1 $20 $19 $56 $57 forward $9 $-1 #
coedge $-1 -1 -1 $-1 $58 $59 $19 $33 reversed $43 $-1 #
edge $-1 -1 -1 $-1 $40 -8.0195000000000007 $60 8.0195000000000007 $32 $61 forward @7 unknown T -8.0195000000000007 8.0195000000006864 0.5 8.0195000000000007 8.0195000000006864 0.5 #
coedge $-1 -1 -1 $-1 $26 $62 $20 $35 reversed $16 $-1 #
edge $-1 -1 -1 $-1 $63 -8.0195000000000007 $39 8.0195000000000007 $34 $64 forward @7 unknown T -8.0195000000000007 -8.0195000000006864 0.5 8.0195000000000007 -8.0195000000006864 0.5 #
coedge $-1 -1 -1 $-1 $29 $21 $62 $65 forward $38 $-1 #
coedge $-1 -1 -1 $-1 $21 $29 $58 $66 reversed $38 $-1 #
loop $-1 -1 -1 $-1 $-1 $36 $42 T 8.0195000000000007 -8.0195000000006864 -0.5 8.0195000000000007 8.0195000000006864 0.5 unknown #
vertex $-1 -1 -1 $-1 $22 $67 #
vertex $-1 -1 -1 $-1 $22 $68 #
straight-curve $-1 -1 -1 $-1 8.0195000000000007 0 0.5 0 1 0 I I #
face $-1 -1 -1 $-1 $-1 $38 $5 $-1 $69 reversed single F F #
loop $-1 -1 -1 $-1 $-1 $58 $23 T -8.0195000000000007 8.0195000000006864 -0.5 8.0195000000000007 8.0195000000006864 0.5 unknown #
plane-surface $-1 -1 -1 $-1 0 8.0195000000006864 0 0 -1 0 0 0 -1 forward_v I I I I #
coedge $-1 -1 -1 $-1 $70 $56 $59 $71 forward $24 $-1 #
coedge $-1 -1 -1 $-1 $62 $26 $27 $50 reversed $16 $-1 #
coedge $-1 -1 -1 $-1 $56 $70 $26 $48 reversed $24 $-1 #
edge $-1 -1 -1 $-1 $63 -0.5 $72 0.5 $47 $73 forward @7 unknown T -8.0195000000000007 -8.0195000000006864 -0.5 -8.0195000000000007 -8.0195000000006864 0.5 #
coedge $-1 -1 -1 $-1 $28 $27 $70 $74 forward $12 $-1 #
edge $-1 -1 -1 $-1 $54 -8.0195000000000007 $72 8.0195000000000007 $46 $75 forward @7 unknown T -8.0195000000000007 -8.0195000000006864 -0.5 8.0195000000000007 -8.0195000000006864 -0.5 #
coedge $-1 -1 -1 $-1 $59 $58 $28 $52 reversed $43 $-1 #
edge $-1 -1 -1 $-1 $76 -8.0195000000000007 $53 8.0195000000000007 $51 $77 forward @7 unknown T -8.0195000000000007 8.0195000000006864 -0.5 8.0195000000000007 8.0195000000006864 -0.5 #
vertex $-1 -1 -1 $-1 $30 $78 #
vertex $-1 -1 -1 $-1 $65 $79 #
straight-curve $-1 -1 -1 $-1 8.0195000000000007 0 -0.5 0 -1 0 I I #
coedge $-1 -1 -1 $-1 $45 $47 $31 $57 reversed $24 $-1 #
edge $-1 -1 -1 $-1 $60 -8.0195000000006864 $63 8.0195000000006864 $56 $80 forward @7 unknown T -8.0195000000000007 -8.0195000000006864 0.5 -8.0195000000000007 8.0195000000006864 0.5 #
coedge $-1 -1 -1 $-1 $51 $32 $37 $66 forward $43 $-1 #
coedge $-1 -1 -1 $-1 $32 $51 $45 $71 reversed $43 $-1 #
vertex $-1 -1 -1 $-1 $33 $81 #
straight-curve $-1 -1 -1 $-1 0 8.0195000000006864 0.5 -1 0 0 I I #
coedge $-1 -1 -1 $-1 $34 $46 $36 $65 reversed $16 $-1 #
vertex $-1 -1 -1 $-1 $57 $82 #
straight-curve $-1 -1 -1 $-1 0 -8.0195000000006864 0.5 1 0 0 I I #
edge $-1 -1 -1 $-1 $39 -0.5 $54 0.5 $36 $83 forward @7 unknown T 8.0195000000000007 -8.0195000000006864 -0.5 8.0195000000000007 -8.0195000000006864 0.5 #
edge $-1 -1 -1 $-1 $40 -0.5 $53 0.5 $37 $84 forward @7 unknown T 8.0195000000000007 8.0195000000006864 -0.5 8.0195000000000007 8.0195000000006864 0.5 #
point $-1 -1 -1 $-1 8.0195000000000007 -8.0195000000006864 0.5 #
point $-1 -1 -1 $-1 8.0195000000000007 8.0195000000006864 0.5 #
plane-surface $-1 -1 -1 $-1 8.0195000000000007 0 0 -1 0 0 0 -0 1 forward_v I I I I #
coedge $-1 -1 -1 $-1 $47 $45 $49 $74 reversed $24 $-1 #
edge $-1 -1 -1 $-1 $60 -0.5 $76 0.5 $59 $85 forward @7 unknown T -8.0195000000000007 8.0195000000006864 -0.5 -8.0195000000000007 8.0195000000006864 0.5 #
vertex $-1 -1 -1 $-1 $74 $86 #
straight-curve $-1 -1 -1 $-1 -8.0195000000000007 -8.0195000000006864 0 0 0 -1 I I #
edge $-1 -1 -1 $-1 $72 -8.0195000000006864 $76 8.0195000000006864 $70 $87 forward @7 unknown T -8.0195000000000007 -8.0195000000006864 -0.5 -8.0195000000000007 8.0195000000006864 -0.5 #
straight-curve $-1 -1 -1 $-1 0 -8.0195000000006864 -0.5 -1 0 0 I I #
vertex $-1 -1 -1 $-1 $52 $88 #
straight-curve $-1 -1 -1 $-1 0 8.0195000000006864 -0.5 1 0 0 I I #
point $-1 -1 -1 $-1 8.0195000000000007 8.0195000000006864 -0.5 #
point $-1 -1 -1 $-1 8.0195000000000007 -8.0195000000006864 -0.5 #
straight-curve $-1 -1 -1 $-1 -8.0195000000000007 0 0.5 0 -1 0 I I #
point $-1 -1 -1 $-1 -8.0195000000000007 8.0195000000006864 0.5 #
point $-1 -1 -1 $-1 -8.0195000000000007 -8.0195000000006864 0.5 #
straight-curve $-1 -1 -1 $-1 8.0195000000000007 -8.0195000000006864 0 0 0 -1 I I #
straight-curve $-1 -1 -1 $-1 8.0195000000000007 8.0195000000006864 0 0 0 -1 I I #
straight-curve $-1 -1 -1 $-1 -8.0195000000000007 8.0195000000006864 0 0 0 -1 I I #
point $-1 -1 -1 $-1 -8.0195000000000007 -8.0195000000006864 -0.5 #
straight-curve $-1 -1 -1 $-1 -8.0195000000000007 0 -0.5 0 1 0 I I #
point $-1 -1 -1 $-1 -8.0195000000000007 8.0195000000006864 -0.5 #
End-of-ACIS-data 2900 0 1 0           
20 CST MICROWAVE STUDIO 14 ACIS 29.0.1 NT 24 Sun Jun 13 18:06:45 2021 
1 9.9999999999999995e-07 1e-10 
T @77 2TS_5C73R6Z4ZNDXRM764J9XY5M379QHS85VF85BU8V4FP79KATMPVPWT8PKMM5E7DQKEAQBYDQUJ 
body $1 -1 -1 $-1 0 $2 $-1 $3 F #
name_attrib-gen-attrib $-1 -1 $4 $-1 $0 2 1 1 1 1 1 1 1 1 1 1 1 1 1 0 1 1 1 @11 mMSREF1/GND #
lump $-1 -1 -1 $-1 $-1 $5 $0 F #
transform $-1 -1 1 0 0 0 1 0 0 0 1 6 3.4087316302944259e-13 0 1 no_rotate no_reflect no_shear #
name_attrib-gen-attrib $-1 -1 $6 $1 $0 2 1 1 1 1 1 1 1 1 1 1 1 1 1 0 1 1 1 @18 nMSREF1:GND_Bottom #
shell $-1 -1 -1 $-1 $-1 $-1 $7 $-1 $2 F #
name_attrib-gen-attrib $-1 -1 $-1 $4 $0 2 1 1 1 1 1 1 1 1 1 1 1 1 1 0 1 1 1 @37 ca1.000000 1.000000 0.000000 0.000000 #
face $-1 -1 -1 $-1 $-1 $8 $5 $-1 $9 reversed double out F F #
loop $-1 -1 -1 $-1 $-1 $10 $7 T -8.0195000000000007 -8.0195000000006864 -0 8.0195000000000007 8.0195000000006864 -0 unknown #
plane-surface $-1 -1 -1 $-1 0 0 -0 0 0 1 1 0 0 forward_v I I I I #
coedge $-1 -1 -1 $-1 $11 $12 $-1 $13 forward $8 $-1 #
coedge $-1 -1 -1 $-1 $14 $10 $-1 $15 forward $8 $-1 #
coedge $-1 -1 -1 $-1 $10 $14 $-1 $16 forward $8 $-1 #
edge $-1 -1 -1 $-1 $17 -8.0195000000006864 $18 8.0195000000006864 $10 $19 forward @7 unknown T 8.0195000000000007 -8.0195000000006864 -0 8.0195000000000007 8.0195000000006864 -0 #
coedge $-1 -1 -1 $-1 $12 $11 $-1 $20 forward $8 $-1 #
edge $-1 -1 -1 $-1 $18 -8.0195000000000007 $21 8.0195000000000007 $11 $22 forward @7 unknown T -8.0195000000000007 -8.0195000000006864 -0 8.0195000000000007 -8.0195000000006864 -0 #
edge $-1 -1 -1 $-1 $23 -8.0195000000000007 $17 8.0195000000000007 $12 $24 forward @7 unknown T -8.0195000000000007 8.0195000000006864 -0 8.0195000000000007 8.0195000000006864 -0 #
vertex $-1 -1 -1 $-1 $13 $25 #
vertex $-1 -1 -1 $-1 $13 $26 #
straight-curve $-1 -1 -1 $-1 8.0195000000000007 0 -0 0 -1 0 I I #
edge $-1 -1 -1 $-1 $21 -8.0195000000006864 $23 8.0195000000006864 $14 $27 forward @7 unknown T -8.0195000000000007 -8.0195000000006864 -0 -8.0195000000000007 8.0195000000006864 -0 #
vertex $-1 -1 -1 $-1 $20 $28 #
straight-curve $-1 -1 -1 $-1 0 -8.0195000000006864 -0 -1 0 0 I I #
vertex $-1 -1 -1 $-1 $16 $29 #
straight-curve $-1 -1 -1 $-1 0 8.0195000000006864 -0 1 0 0 I I #
point $-1 -1 -1 $-1 8.0195000000000007 8.0195000000006864 -0 #
point $-1 -1 -1 $-1 8.0195000000000007 -8.0195000000006864 -0 #
straight-curve $-1 -1 -1 $-1 -8.0195000000000007 0 -0 0 1 0 I I #
point $-1 -1 -1 $-1 -8.0195000000000007 -8.0195000000006864 -0 #
point $-1 -1 -1 $-1 -8.0195000000000007 8.0195000000006864 -0 #
End-of-ACIS-data 